<svg width="256" height="257" viewBox="0 0 256 257" fill="none" xmlns="http://www.w3.org/2000/svg">
<g clip-path="url(#clip0_11438_120311)">
<rect y="0.117188" width="256" height="256" rx="60" fill="url(#paint0_linear_11438_120311)"/>
<g filter="url(#filter0_d_11438_120311)">
<path d="M215.735 128.117C215.735 139.639 213.466 151.048 209.057 161.692C204.648 172.336 198.185 182.008 190.038 190.155C181.891 198.302 172.219 204.765 161.575 209.174C150.93 213.583 139.521 215.852 127.999 215.852C116.478 215.852 105.069 213.583 94.4244 209.174C83.7798 204.765 74.1079 198.302 65.9609 190.155C57.8139 182.008 51.3513 172.336 46.9422 161.692C42.533 151.048 40.2637 139.639 40.2637 128.117L127.999 128.117H215.735Z" fill="#D861C7"/>
<path d="M40.2647 128.117C40.2647 116.595 42.534 105.187 46.9432 94.5424C51.3523 83.8979 57.8149 74.2261 65.9619 66.0792C74.1089 57.9323 83.7808 51.4698 94.4254 47.0607C105.07 42.6516 116.479 40.3823 128 40.3823C139.522 40.3823 150.931 42.6516 161.576 47.0607C172.22 51.4698 181.892 57.9323 190.039 66.0792C198.186 74.2261 204.649 83.8979 209.058 94.5424C213.467 105.187 215.736 116.595 215.736 128.117L128 128.117L40.2647 128.117Z" fill="#6BE6DA"/>
<path d="M167.17 130.832H215.7C214.263 178.031 175.544 215.855 127.992 215.855C80.4406 215.855 41.722 178.031 40.2845 130.832H89.1905L128.18 215.199L167.17 130.832ZM72.4719 94.6442C59.6698 99.3944 46.4615 108.623 40.7428 118.707C40.4824 121.166 40.3158 123.645 40.2637 126.155H87.0344L72.4719 94.6442ZM131.961 57.5498C133.472 60.1957 89.5031 62.8312 77.2323 60.3832C76.0864 60.154 75.1385 59.6436 74.3677 58.9144L84.7531 81.3939C85.5866 81.5398 86.2426 81.8106 86.6593 82.2691C91.1906 87.1753 99.4925 85.4773 103.649 88.6859C105.336 89.988 100.274 89.3629 89.1176 90.8317L91.3989 95.7691H164.961L169.659 85.6023C167.18 86.967 165.274 88.0816 164.222 88.4877C159.878 90.1858 153.274 89.6232 154.972 89.4356C156.669 89.2485 161.201 86.415 164.409 84.9044C165.68 84.3108 168.44 82.4566 172.201 80.0918L181.971 58.9457C167.097 47.3204 148.357 40.3828 127.992 40.3828C116.847 40.3828 106.18 42.4662 96.3675 46.2579C109.274 50.5288 130.472 54.956 131.961 57.5498ZM191.648 77.8731L169.336 126.155H215.732C215.586 119.655 214.732 113.332 213.253 107.259C210.221 107.103 207.274 106.415 205.378 105.853C202.169 104.905 198.013 105.665 192.732 105.853C187.451 106.04 188.576 104.342 189.336 102.269C190.065 100.28 203.305 94.9879 209.034 94.3942C206.898 89.2693 204.294 84.3941 201.263 79.8209C201.128 79.7584 200.982 79.6962 200.846 79.6337C197.982 78.1959 194.846 77.7273 191.648 77.8731ZM67.3677 83.6023L61.4928 70.8834C59.774 72.873 58.149 74.9356 56.6178 77.0813C59.5449 81.1961 62.7428 83.9463 67.3677 83.6023ZM105.44 126.155H150.93L158.18 110.478H98.1905L105.44 126.155ZM128.18 175.365L148.763 130.832H107.607L128.18 175.365Z" fill="url(#paint1_linear_11438_120311)"/>
<rect x="40.2832" y="126.176" width="175.449" height="4.64247" fill="#6BE6DA"/>
</g>
</g>
<defs>
<filter id="filter0_d_11438_120311" x="33.2448" y="33.3639" width="191.516" height="191.516" filterUnits="userSpaceOnUse" color-interpolation-filters="sRGB">
<feFlood flood-opacity="0" result="BackgroundImageFix"/>
<feColorMatrix in="SourceAlpha" type="matrix" values="0 0 0 0 0 0 0 0 0 0 0 0 0 0 0 0 0 0 127 0" result="hardAlpha"/>
<feOffset dx="1.0027" dy="1.0027"/>
<feGaussianBlur stdDeviation="4.01079"/>
<feComposite in2="hardAlpha" operator="out"/>
<feColorMatrix type="matrix" values="0 0 0 0 0.124896 0 0 0 0 0.143484 0 0 0 0 0.454167 0 0 0 0.2 0"/>
<feBlend mode="normal" in2="BackgroundImageFix" result="effect1_dropShadow_11438_120311"/>
<feBlend mode="normal" in="SourceGraphic" in2="effect1_dropShadow_11438_120311" result="shape"/>
</filter>
<linearGradient id="paint0_linear_11438_120311" x1="256" y1="0.117192" x2="-23.9299" y2="226.531" gradientUnits="userSpaceOnUse">
<stop stop-color="#D55D8D"/>
<stop offset="0.477554" stop-color="#6270EF"/>
<stop offset="1" stop-color="#BC90BF"/>
</linearGradient>
<linearGradient id="paint1_linear_11438_120311" x1="127.995" y1="40.3828" x2="127.995" y2="215.851" gradientUnits="userSpaceOnUse">
<stop offset="0.3" stop-color="#E857CC"/>
<stop offset="0.8" stop-color="#00E9C9"/>
</linearGradient>
<clipPath id="clip0_11438_120311">
<rect width="256" height="256" fill="white" transform="translate(0 0.117188)"/>
</clipPath>
</defs>
</svg>
